<svg xmlns="http://www.w3.org/2000/svg" xmlns:xlink="http://www.w3.org/1999/xlink" width="500" zoomAndPan="magnify" viewBox="0 0 375 374.999991" height="500" preserveAspectRatio="xMidYMid meet" version="1.0"><defs><g/></defs><path fill="#000000" d="M 70.082031 187.398438 L 70.082031 304.714844 L 304.714844 304.714844 L 304.714844 70.082031 L 70.082031 70.082031 Z M 75.414062 187.398438 L 75.414062 299.378906 L 299.378906 299.378906 L 299.378906 75.414062 L 75.414062 75.414062 Z M 153.691406 83.460938 C 149.523438 85.4375 139.6875 88.996094 131.828125 91.363281 C 123.972656 93.734375 116.34375 96.558594 114.875 97.640625 C 111.351562 100.246094 107.777344 106.578125 105.75 113.808594 C 104.84375 117.035156 103.410156 120.949219 102.558594 122.507812 C 101.707031 124.0625 101.011719 126.046875 101.011719 126.917969 C 101.011719 127.785156 100.296875 129.871094 99.417969 131.550781 C 98.542969 133.230469 97.824219 136.066406 97.820312 137.847656 C 97.816406 139.628906 95.832031 147.550781 93.410156 155.445312 C 89.601562 167.851562 88.988281 171.234375 88.875 180.355469 L 88.746094 190.910156 L 95.859375 193.320312 C 99.773438 194.648438 106.730469 196.078125 111.324219 196.496094 C 119.140625 197.214844 125.554688 199.257812 125.53125 201.023438 C 125.523438 201.449219 124.792969 204.183594 123.910156 207.105469 C 123.003906 210.085938 122.382812 215.691406 122.492188 219.902344 C 122.601562 224.023438 122.316406 229.378906 121.859375 231.808594 C 121.261719 234.96875 121.535156 237.753906 122.816406 241.613281 C 124.097656 245.46875 124.34375 248.011719 123.691406 250.53125 C 123.1875 252.46875 123.121094 256.214844 123.542969 258.855469 C 123.96875 261.492188 124.363281 267.492188 124.421875 272.183594 C 124.515625 279.8125 125.695312 288.160156 126.84375 289.304688 C 127.074219 289.539062 132.035156 289.964844 137.867188 290.253906 C 143.699219 290.539062 152.070312 291.769531 156.46875 292.980469 C 167.003906 295.878906 185.8125 296.898438 196.671875 295.160156 C 201.25 294.421875 211.714844 291.429688 219.925781 288.503906 C 240.816406 281.058594 240.179688 281.347656 238.785156 279.953125 C 237.339844 278.507812 233.15625 279.609375 217.792969 285.46875 C 195.894531 293.820312 179.058594 294.910156 156.46875 289.4375 C 150.3125 287.945312 142.113281 286.53125 138.257812 286.296875 C 134.398438 286.0625 130.722656 285.550781 130.089844 285.160156 C 128.886719 284.414062 127.738281 272.351562 126.945312 252.144531 C 125.984375 227.601562 126.375 210.792969 128.007812 206.070312 L 129.445312 201.925781 L 132.460938 210.394531 C 138.714844 227.925781 149.867188 248.101562 156.851562 254.507812 C 160.632812 257.976562 160.4375 256.277344 156.546875 251.84375 C 148.546875 242.738281 137.320312 219.734375 131.070312 199.664062 C 124.132812 177.382812 121.726562 157.816406 122.929688 133.496094 C 123.6875 118.253906 123.65625 117.945312 121.234375 115.367188 C 117.628906 111.527344 114.882812 111.890625 114.839844 116.210938 L 114.804688 119.675781 L 112.707031 117.15625 C 110.054688 113.972656 110.066406 111.59375 112.757812 106.316406 C 115.542969 100.851562 117.65625 99.59375 129.601562 96.253906 C 135.058594 94.726562 143.34375 92.085938 148.007812 90.386719 L 156.488281 87.289062 L 158.183594 90.566406 C 161.195312 96.390625 170.988281 104.96875 177.332031 107.34375 C 192.203125 112.910156 208.421875 107.320312 217.230469 93.59375 L 220.621094 88.3125 L 229.660156 91.582031 C 234.632812 93.382812 238.984375 94.570312 239.332031 94.226562 C 240.519531 93.039062 237.488281 90.621094 232.441406 88.730469 C 229.664062 87.6875 224.535156 85.410156 221.046875 83.667969 L 214.699219 80.5 L 207.5625 82.226562 C 197.257812 84.710938 180.855469 84.515625 173 81.816406 C 164.847656 79.007812 162.691406 79.191406 153.691406 83.460938 M 160.75 84.785156 L 158.140625 86.902344 L 162.148438 92.945312 C 167.839844 101.515625 180.003906 108.476562 189.292969 108.476562 C 198.898438 108.476562 211.644531 100.738281 216.207031 92.136719 C 218.730469 87.386719 218.753906 87.160156 216.84375 85.765625 C 215.0625 84.460938 214.222656 84.972656 208.332031 90.9375 C 192.722656 106.734375 178.640625 104.808594 164.984375 85.015625 L 163.363281 82.671875 Z M 168.199219 85.46875 C 168.199219 85.847656 168.960938 87.3125 169.886719 88.726562 C 172.230469 92.304688 180.339844 93.921875 193.136719 93.363281 C 203.179688 92.921875 203.546875 92.816406 206.890625 89.363281 C 210.21875 85.925781 210.242188 85.835938 207.660156 86.519531 C 206.195312 86.90625 199.644531 87.515625 193.101562 87.871094 C 182.234375 88.464844 176.125 87.828125 169.9375 85.453125 C 168.984375 85.085938 168.199219 85.09375 168.199219 85.46875 M 177.222656 95.605469 C 178.390625 97.5 184.613281 99.949219 188.164062 99.917969 C 189.796875 99.902344 193.050781 98.980469 195.398438 97.871094 L 199.664062 95.851562 L 189.886719 95.765625 C 184.507812 95.71875 179.269531 95.359375 178.246094 94.964844 C 176.90625 94.453125 176.617188 94.632812 177.222656 95.605469 M 117.003906 116.042969 C 117 116.867188 116.304688 118.867188 115.460938 120.484375 C 114.019531 123.25 114.097656 123.589844 116.789062 126.085938 C 118.363281 127.546875 120.019531 128.742188 120.464844 128.742188 C 120.910156 128.742188 121.273438 126.414062 121.273438 123.574219 C 121.273438 119.761719 120.714844 117.902344 119.140625 116.476562 C 117.511719 115 117.007812 114.898438 117.003906 116.042969 M 107.230469 122.707031 C 104.730469 127.894531 103.078125 132.941406 101.578125 139.9375 C 100.824219 143.457031 98.539062 152.335938 96.496094 159.667969 C 94.453125 167 92.480469 174.976562 92.105469 177.390625 L 91.433594 181.78125 L 96.222656 183.613281 C 98.855469 184.617188 101.011719 185.882812 101.011719 186.421875 C 101.011719 187.679688 101.011719 187.679688 95.738281 185.820312 C 91.613281 184.363281 91.292969 184.382812 91.613281 186.046875 C 92.171875 188.957031 104.40625 192.582031 113.945312 192.664062 C 119.808594 192.710938 122.453125 193.175781 123.40625 194.332031 C 125.207031 196.496094 128.09375 196.433594 127.257812 194.246094 C 123.40625 184.210938 120.207031 160.210938 120.207031 141.339844 C 120.207031 131.59375 120.082031 131.035156 117.519531 129.359375 C 116.042969 128.390625 113.488281 125.738281 111.84375 123.46875 L 108.855469 119.34375 Z M 142.195312 208.996094 C 150.351562 225.167969 172.394531 251.171875 185.730469 260.359375 C 193.746094 265.878906 194.5625 264.523438 186.679688 258.773438 C 172.855469 248.683594 157.289062 230.757812 146.238281 212.199219 C 140.394531 202.382812 137.835938 200.355469 142.195312 208.996094 M 238.304688 213.722656 C 238.035156 214.203125 236.710938 217.953125 235.367188 222.058594 C 232.339844 231.316406 224.082031 251.191406 222.441406 253.171875 C 221.769531 253.976562 221.492188 254.910156 221.824219 255.238281 C 223.335938 256.753906 232.871094 235.808594 237.515625 220.769531 C 239.414062 214.625 239.808594 211.089844 238.304688 213.722656 M 237.128906 243.445312 C 236.695312 244.585938 233.425781 250.460938 229.863281 256.492188 C 226.296875 262.527344 223.644531 267.726562 223.960938 268.042969 C 224.28125 268.363281 226.945312 264.554688 229.882812 259.582031 C 237.171875 247.238281 238.789062 243.980469 238.316406 242.570312 C 238.097656 241.90625 237.5625 242.300781 237.128906 243.445312 M 232.828125 263.917969 C 229.957031 267 228.054688 269.519531 228.609375 269.519531 C 230.078125 269.519531 238.902344 260.28125 238.445312 259.222656 C 238.230469 258.726562 235.707031 260.839844 232.828125 263.917969 M 128.742188 260.527344 C 128.742188 262.242188 162.078125 276.242188 164.808594 275.671875 C 165.851562 275.453125 164.367188 274.453125 161.269531 273.285156 C 158.335938 272.175781 150.019531 268.714844 142.789062 265.597656 C 129.023438 259.65625 128.742188 259.550781 128.742188 260.527344 " fill-opacity="1" fill-rule="evenodd"/><g fill="#000000" fill-opacity="1"><g transform="translate(79.432404, 332.949998)"><g><path d="M 2.046875 -15.828125 L 4.65625 -15.828125 L 4.65625 0 L 2.046875 0 Z M 11.28125 -7.140625 L 5.546875 -7.140625 L 5.546875 -8.890625 L 11.28125 -8.890625 Z M 11.953125 -15.828125 L 11.953125 -13.875 L 5.546875 -13.875 L 5.546875 -15.828125 Z M 11.953125 -15.828125 "/></g></g></g><g fill="#000000" fill-opacity="1"><g transform="translate(95.31741, 332.949998)"><g><path d="M 1.9375 -15.828125 L 4.515625 -15.828125 L 4.515625 0 L 1.9375 0 Z M 12.671875 0 L 9.953125 0 L 6.96875 -5.734375 C 6.914062 -5.734375 6.863281 -5.726562 6.8125 -5.71875 C 6.769531 -5.71875 6.695312 -5.71875 6.59375 -5.71875 C 6.5 -5.71875 6.351562 -5.71875 6.15625 -5.71875 C 5.957031 -5.71875 5.703125 -5.71875 5.390625 -5.71875 L 5.390625 -7.609375 L 6.859375 -7.609375 C 7.171875 -7.609375 7.484375 -7.660156 7.796875 -7.765625 C 8.109375 -7.867188 8.394531 -8.039062 8.65625 -8.28125 C 8.914062 -8.53125 9.125 -8.875 9.28125 -9.3125 C 9.4375 -9.75 9.515625 -10.289062 9.515625 -10.9375 C 9.515625 -11.195312 9.476562 -11.492188 9.40625 -11.828125 C 9.332031 -12.160156 9.1875 -12.476562 8.96875 -12.78125 C 8.75 -13.09375 8.4375 -13.351562 8.03125 -13.5625 C 7.632812 -13.769531 7.109375 -13.875 6.453125 -13.875 L 5.390625 -13.875 L 5.390625 -15.828125 L 6.484375 -15.828125 C 7.160156 -15.828125 7.828125 -15.71875 8.484375 -15.5 C 9.140625 -15.289062 9.726562 -14.972656 10.25 -14.546875 C 10.78125 -14.117188 11.207031 -13.597656 11.53125 -12.984375 C 11.851562 -12.378906 12.015625 -11.695312 12.015625 -10.9375 C 12.015625 -9.789062 11.75 -8.816406 11.21875 -8.015625 C 10.6875 -7.210938 9.96875 -6.617188 9.0625 -6.234375 Z M 12.671875 0 "/></g></g></g><g fill="#000000" fill-opacity="1"><g transform="translate(112.684575, 332.949998)"><g><path d="M 4.640625 0 L 2.015625 0 L 2.015625 -15.828125 L 4.640625 -15.828125 Z M 4.640625 0 "/></g></g></g><g fill="#000000" fill-opacity="1"><g transform="translate(122.490585, 332.949998)"><g><path d="M 1.953125 -15.828125 L 4.53125 -15.828125 L 4.53125 0 L 1.953125 0 Z M 6.515625 -15.828125 C 7.179688 -15.828125 7.84375 -15.71875 8.5 -15.5 C 9.164062 -15.289062 9.757812 -14.972656 10.28125 -14.546875 C 10.800781 -14.117188 11.222656 -13.597656 11.546875 -12.984375 C 11.867188 -12.378906 12.03125 -11.695312 12.03125 -10.9375 C 12.03125 -10.132812 11.894531 -9.40625 11.625 -8.75 C 11.351562 -8.101562 10.972656 -7.554688 10.484375 -7.109375 C 9.992188 -6.671875 9.40625 -6.328125 8.71875 -6.078125 C 8.03125 -5.835938 7.273438 -5.71875 6.453125 -5.71875 L 5.421875 -5.71875 L 5.421875 -7.609375 L 6.890625 -7.609375 C 7.210938 -7.609375 7.523438 -7.660156 7.828125 -7.765625 C 8.140625 -7.867188 8.421875 -8.039062 8.671875 -8.28125 C 8.929688 -8.53125 9.140625 -8.875 9.296875 -9.3125 C 9.460938 -9.75 9.546875 -10.289062 9.546875 -10.9375 C 9.546875 -11.195312 9.507812 -11.492188 9.4375 -11.828125 C 9.363281 -12.160156 9.210938 -12.476562 8.984375 -12.78125 C 8.765625 -13.09375 8.453125 -13.351562 8.046875 -13.5625 C 7.648438 -13.769531 7.125 -13.875 6.46875 -13.875 L 5.421875 -13.875 L 5.421875 -15.828125 Z M 6.515625 -15.828125 "/></g></g></g><g fill="#000000" fill-opacity="1"><g transform="translate(138.676317, 332.949998)"><g/></g></g><g fill="#000000" fill-opacity="1"><g transform="translate(147.751985, 332.949998)"><g><path d="M 9.265625 -13.390625 C 9.191406 -13.410156 9.101562 -13.457031 9 -13.53125 C 8.90625 -13.601562 8.765625 -13.671875 8.578125 -13.734375 C 8.390625 -13.804688 8.148438 -13.863281 7.859375 -13.90625 C 7.578125 -13.945312 7.210938 -13.953125 6.765625 -13.921875 L 6.765625 -16.09375 C 7.398438 -16.082031 8.039062 -16.015625 8.6875 -15.890625 C 9.34375 -15.765625 9.867188 -15.570312 10.265625 -15.3125 C 10.179688 -15.132812 10.082031 -14.929688 9.96875 -14.703125 C 9.851562 -14.484375 9.742188 -14.273438 9.640625 -14.078125 C 9.546875 -13.890625 9.460938 -13.726562 9.390625 -13.59375 C 9.316406 -13.46875 9.273438 -13.398438 9.265625 -13.390625 Z M 1.84375 -11.671875 C 1.84375 -12.296875 1.953125 -12.859375 2.171875 -13.359375 C 2.390625 -13.859375 2.679688 -14.296875 3.046875 -14.671875 C 3.410156 -15.054688 3.835938 -15.359375 4.328125 -15.578125 C 4.828125 -15.804688 5.347656 -15.957031 5.890625 -16.03125 L 5.890625 -13.765625 C 5.429688 -13.609375 5.050781 -13.332031 4.75 -12.9375 C 4.445312 -12.550781 4.296875 -12.15625 4.296875 -11.75 C 4.296875 -11.195312 4.445312 -10.75 4.75 -10.40625 C 5.050781 -10.0625 5.429688 -9.757812 5.890625 -9.5 L 5.890625 -7.046875 C 5.410156 -7.273438 4.9375 -7.519531 4.46875 -7.78125 C 4 -8.050781 3.566406 -8.363281 3.171875 -8.71875 C 2.785156 -9.082031 2.46875 -9.5 2.21875 -9.96875 C 1.96875 -10.4375 1.84375 -11.003906 1.84375 -11.671875 Z M 2.1875 -2.90625 C 2.394531 -2.789062 2.648438 -2.675781 2.953125 -2.5625 C 3.265625 -2.457031 3.582031 -2.359375 3.90625 -2.265625 C 4.238281 -2.171875 4.566406 -2.09375 4.890625 -2.03125 C 5.222656 -1.976562 5.535156 -1.953125 5.828125 -1.953125 L 5.890625 -1.953125 L 5.890625 0.09375 L 5.84375 0.09375 C 5.5 0.09375 5.144531 0.0703125 4.78125 0.03125 C 4.414062 0 4.046875 -0.0546875 3.671875 -0.140625 C 3.296875 -0.234375 2.941406 -0.351562 2.609375 -0.5 C 2.273438 -0.65625 1.984375 -0.835938 1.734375 -1.046875 Z M 6.765625 -9.0625 C 7.242188 -8.851562 7.726562 -8.625 8.21875 -8.375 C 8.707031 -8.132812 9.148438 -7.835938 9.546875 -7.484375 C 9.953125 -7.140625 10.285156 -6.710938 10.546875 -6.203125 C 10.804688 -5.703125 10.9375 -5.082031 10.9375 -4.34375 C 10.9375 -3.820312 10.835938 -3.316406 10.640625 -2.828125 C 10.453125 -2.347656 10.179688 -1.910156 9.828125 -1.515625 C 9.472656 -1.117188 9.035156 -0.785156 8.515625 -0.515625 C 8.003906 -0.242188 7.421875 -0.0664062 6.765625 0.015625 L 6.765625 -2.046875 C 7.941406 -2.328125 8.53125 -3.109375 8.53125 -4.390625 C 8.53125 -4.890625 8.363281 -5.300781 8.03125 -5.625 C 7.707031 -5.957031 7.285156 -6.265625 6.765625 -6.546875 Z M 6.765625 -9.0625 "/></g></g></g><g fill="#000000" fill-opacity="1"><g transform="translate(162.584442, 332.949998)"><g><path d="M 14.953125 0 L 12.296875 0 L 8.1875 -11.859375 L 4.046875 0 L 1.359375 0 L 6.890625 -15.8125 L 9.453125 -15.8125 Z M 9.609375 -5.03125 L 10.234375 -3.28125 L 6.125 -3.28125 L 6.71875 -5.03125 Z M 9.609375 -5.03125 "/></g></g></g><g fill="#000000" fill-opacity="1"><g transform="translate(182.078186, 332.949998)"><g><path d="M 2 0 L 2 -15.828125 L 4.625 -15.828125 L 4.625 0 Z M 7.21875 -7.6875 L 12.71875 0 L 9.734375 0 L 5.5 -6.234375 L 5.5 -9.375 L 9.34375 -15.828125 L 12.296875 -15.828125 Z M 7.21875 -7.6875 "/></g></g></g><g fill="#000000" fill-opacity="1"><g transform="translate(199.617194, 332.949998)"><g><path d="M 4.640625 0 L 2.015625 0 L 2.015625 -15.828125 L 4.640625 -15.828125 Z M 4.640625 0 "/></g></g></g><g fill="#000000" fill-opacity="1"><g transform="translate(209.423201, 332.949998)"><g><path d="M 10.015625 -15.828125 L 12.953125 -15.828125 L 8.25 -6.453125 L 8.25 0 L 5.625 0 L 5.625 -5.28125 Z M 4.109375 -15.828125 L 6.484375 -9.671875 L 5.328125 -6.859375 L 1.15625 -15.828125 Z M 4.109375 -15.828125 "/></g></g></g><g fill="#000000" fill-opacity="1"><g transform="translate(226.682962, 332.949998)"><g><path d="M 2.046875 -15.828125 L 4.65625 -15.828125 L 4.65625 0 L 2.046875 0 Z M 11.28125 -7.140625 L 5.546875 -7.140625 L 5.546875 -8.890625 L 11.28125 -8.890625 Z M 5.546875 -1.953125 L 11.953125 -1.953125 L 11.953125 0 L 5.546875 0 Z M 11.953125 -15.828125 L 11.953125 -13.875 L 5.546875 -13.875 L 5.546875 -15.828125 Z M 11.953125 -15.828125 "/></g></g></g><g fill="#000000" fill-opacity="1"><g transform="translate(243.362748, 332.949998)"><g><path d="M 13.15625 -15.828125 L 13.15625 -14.078125 L 8.421875 -14.078125 L 8.421875 0 L 5.828125 0 L 5.828125 -14.078125 L 1.09375 -14.078125 L 1.09375 -15.828125 Z M 13.15625 -15.828125 "/></g></g></g><g fill="#000000" fill-opacity="1"><g transform="translate(260.794353, 332.949998)"><g><path d="M 10.8125 -15.828125 L 13.421875 -15.828125 L 13.421875 0 L 10.8125 0 L 5.484375 -9.375 L 5.484375 -14.3125 L 10.8125 -4.921875 Z M 1.984375 0 L 1.984375 -15.828125 L 4.59375 -15.828125 L 4.59375 0 Z M 1.984375 0 "/></g></g></g><g fill="#000000" fill-opacity="1"><g transform="translate(279.364427, 332.949998)"><g><path d="M 14.953125 0 L 12.296875 0 L 8.1875 -11.859375 L 4.046875 0 L 1.359375 0 L 6.890625 -15.8125 L 9.453125 -15.8125 Z M 9.609375 -5.03125 L 10.234375 -3.28125 L 6.125 -3.28125 L 6.71875 -5.03125 Z M 9.609375 -5.03125 "/></g></g></g><g fill="#000000" fill-opacity="1"><g transform="translate(298.865987, 332.949998)"><g/></g></g><g fill="#000000" fill-opacity="1"><g transform="translate(277.686754, 280.830831)"><g><path d="M -18.125 -15 C -18.125 -15.09375 -18.082031 -15.21875 -18 -15.375 C -17.925781 -15.539062 -17.710938 -15.625 -17.359375 -15.625 L -15.625 -15.625 C -15.28125 -15.625 -15.066406 -15.539062 -14.984375 -15.375 C -14.910156 -15.21875 -14.875 -15.09375 -14.875 -15 L -14.875 -2.359375 C -14.875 -2.265625 -14.914062 -2.140625 -15 -1.984375 C -15.09375 -1.835938 -15.304688 -1.765625 -15.640625 -1.765625 L -17.34375 -1.765625 C -17.6875 -1.765625 -17.898438 -1.835938 -17.984375 -1.984375 C -18.078125 -2.140625 -18.125 -2.265625 -18.125 -2.359375 Z M -10.765625 -14.890625 C -10.765625 -14.984375 -10.71875 -15.109375 -10.625 -15.265625 C -10.539062 -15.429688 -10.328125 -15.515625 -9.984375 -15.515625 L -8.25 -15.515625 C -7.914062 -15.515625 -7.707031 -15.429688 -7.625 -15.265625 C -7.539062 -15.109375 -7.5 -14.984375 -7.5 -14.890625 L -7.5 -5.0625 C -7.5 -5.0625 -7.335938 -5.054688 -7.015625 -5.046875 C -6.691406 -5.035156 -6.273438 -5.03125 -5.765625 -5.03125 C -5.253906 -5.03125 -4.707031 -5.023438 -4.125 -5.015625 C -3.539062 -5.015625 -2.992188 -5.015625 -2.484375 -5.015625 C -1.972656 -5.015625 -1.554688 -5.015625 -1.234375 -5.015625 C -0.910156 -5.015625 -0.75 -5.015625 -0.75 -5.015625 C -0.40625 -5.015625 -0.191406 -4.929688 -0.109375 -4.765625 C -0.0234375 -4.609375 0.015625 -4.488281 0.015625 -4.40625 L 0.015625 -2.375 C 0.015625 -2.289062 -0.0234375 -2.164062 -0.109375 -2 C -0.191406 -1.84375 -0.40625 -1.765625 -0.75 -1.765625 L -9.234375 -1.796875 C -9.335938 -1.828125 -9.4375 -1.859375 -9.53125 -1.890625 C -9.632812 -1.929688 -9.726562 -1.976562 -9.8125 -2.03125 C -10.382812 -2.375 -10.691406 -2.878906 -10.734375 -3.546875 Z M -10.765625 -14.890625 "/></g></g></g><g fill="#000000" fill-opacity="1"><g transform="translate(277.686754, 262.354129)"><g><path d="M -12.875 -16.765625 L -12.734375 -16.765625 C -12.753906 -16.765625 -12.765625 -16.765625 -12.765625 -16.765625 C -12.773438 -16.765625 -12.785156 -16.765625 -12.796875 -16.765625 C -12.816406 -16.765625 -12.828125 -16.765625 -12.828125 -16.765625 C -12.835938 -16.765625 -12.851562 -16.765625 -12.875 -16.765625 Z M -0.953125 -17.1875 C -0.828125 -17.269531 -0.648438 -17.296875 -0.421875 -17.265625 C -0.128906 -17.222656 0.015625 -17.054688 0.015625 -16.765625 L 0.015625 -14.34375 C 0.015625 -14.15625 -0.0234375 -14 -0.109375 -13.875 C -0.140625 -13.832031 -0.179688 -13.789062 -0.234375 -13.75 C -0.296875 -13.71875 -0.359375 -13.679688 -0.421875 -13.640625 L -7.484375 -9.65625 L -7.484375 -5.015625 L -0.75 -5.015625 C -0.40625 -5.015625 -0.191406 -4.9375 -0.109375 -4.78125 C -0.0234375 -4.625 0.015625 -4.5 0.015625 -4.40625 L 0.015625 -2.390625 C 0.015625 -2.296875 -0.0234375 -2.164062 -0.109375 -2 C -0.191406 -1.84375 -0.40625 -1.765625 -0.75 -1.765625 L -9.984375 -1.765625 C -10.328125 -1.765625 -10.535156 -1.84375 -10.609375 -2 C -10.691406 -2.164062 -10.734375 -2.296875 -10.734375 -2.390625 L -10.734375 -11.96875 C -10.734375 -12.519531 -10.894531 -12.910156 -11.21875 -13.140625 C -11.539062 -13.367188 -12.066406 -13.484375 -12.796875 -13.484375 C -13.535156 -13.484375 -14.066406 -13.367188 -14.390625 -13.140625 C -14.710938 -12.910156 -14.875 -12.519531 -14.875 -11.96875 L -14.875 -2.390625 C -14.875 -2.296875 -14.910156 -2.164062 -14.984375 -2 C -15.066406 -1.84375 -15.28125 -1.765625 -15.625 -1.765625 L -17.359375 -1.765625 C -17.710938 -1.765625 -17.925781 -1.84375 -18 -2 C -18.082031 -2.164062 -18.125 -2.296875 -18.125 -2.390625 L -18.125 -12.546875 C -18.125 -14.054688 -17.65625 -15.140625 -16.71875 -15.796875 C -15.8125 -16.421875 -14.503906 -16.742188 -12.796875 -16.765625 C -11.097656 -16.742188 -9.796875 -16.421875 -8.890625 -15.796875 C -8.128906 -15.234375 -7.679688 -14.410156 -7.546875 -13.328125 Z M -0.953125 -17.1875 "/></g></g></g><g fill="#000000" fill-opacity="1"><g transform="translate(277.686754, 242.205719)"><g><path d="M -18.125 -4.40625 C -18.125 -4.488281 -18.078125 -4.609375 -17.984375 -4.765625 C -17.898438 -4.929688 -17.691406 -5.015625 -17.359375 -5.015625 L -0.75 -5.015625 C -0.40625 -5.015625 -0.191406 -4.929688 -0.109375 -4.765625 C -0.0234375 -4.609375 0.015625 -4.488281 0.015625 -4.40625 L 0.015625 -2.375 C 0.015625 -2.289062 -0.0234375 -2.164062 -0.109375 -2 C -0.191406 -1.84375 -0.40625 -1.765625 -0.75 -1.765625 L -17.359375 -1.765625 C -17.691406 -1.765625 -17.898438 -1.84375 -17.984375 -2 C -18.078125 -2.164062 -18.125 -2.289062 -18.125 -2.375 Z M -18.125 -4.40625 "/></g></g></g><g fill="#000000" fill-opacity="1"><g transform="translate(277.686754, 234.33112)"><g><path d="M -18.125 -12.546875 C -18.125 -14.035156 -17.65625 -15.113281 -16.71875 -15.78125 C -15.84375 -16.414062 -14.515625 -16.734375 -12.734375 -16.734375 L -12.875 -16.734375 C -11.125 -16.734375 -9.796875 -16.414062 -8.890625 -15.78125 C -7.960938 -15.113281 -7.5 -14.035156 -7.5 -12.546875 L -7.484375 -5.015625 L -0.75 -5.015625 C -0.40625 -5.015625 -0.191406 -4.929688 -0.109375 -4.765625 C -0.0234375 -4.609375 0.015625 -4.488281 0.015625 -4.40625 L 0.015625 -2.375 C 0.015625 -2.289062 -0.0234375 -2.164062 -0.109375 -2 C -0.191406 -1.84375 -0.40625 -1.765625 -0.75 -1.765625 L -9.984375 -1.765625 C -10.328125 -1.765625 -10.535156 -1.84375 -10.609375 -2 C -10.691406 -2.164062 -10.734375 -2.289062 -10.734375 -2.375 L -10.734375 -11.96875 C -10.734375 -12.519531 -10.894531 -12.910156 -11.21875 -13.140625 C -11.539062 -13.367188 -12.066406 -13.484375 -12.796875 -13.484375 C -13.535156 -13.484375 -14.066406 -13.367188 -14.390625 -13.140625 C -14.710938 -12.910156 -14.875 -12.519531 -14.875 -11.96875 L -14.875 -2.375 C -14.875 -2.289062 -14.910156 -2.164062 -14.984375 -2 C -15.066406 -1.84375 -15.28125 -1.765625 -15.625 -1.765625 L -17.359375 -1.765625 C -17.710938 -1.765625 -17.925781 -1.84375 -18 -2 C -18.082031 -2.164062 -18.125 -2.289062 -18.125 -2.375 Z M -18.125 -12.546875 "/></g></g></g><g fill="#000000" fill-opacity="1"><g transform="translate(277.686754, 214.73261)"><g/></g></g><g fill="#000000" fill-opacity="1"><g transform="translate(277.686754, 202.326827)"><g><path d="M -14.03125 -16.78125 C -13.113281 -17 -12.03125 -17.109375 -10.78125 -17.109375 L -7.328125 -17.109375 C -6.078125 -17.109375 -4.988281 -17 -4.0625 -16.78125 C -3.613281 -16.675781 -3.191406 -16.53125 -2.796875 -16.34375 C -2.410156 -16.164062 -2.070312 -15.960938 -1.78125 -15.734375 C -1.164062 -15.242188 -0.710938 -14.617188 -0.421875 -13.859375 C -0.128906 -13.109375 0.015625 -12.222656 0.015625 -11.203125 L 0.015625 -3.671875 C 0.015625 -3.335938 -0.0664062 -3.019531 -0.234375 -2.71875 C -0.398438 -2.414062 -0.628906 -2.175781 -0.921875 -2 C -1.128906 -1.882812 -1.359375 -1.804688 -1.609375 -1.765625 L -16.625 -1.78125 C -16.71875 -1.8125 -16.8125 -1.84375 -16.90625 -1.875 C -17 -1.914062 -17.09375 -1.957031 -17.1875 -2 C -17.757812 -2.351562 -18.066406 -2.859375 -18.109375 -3.515625 L -18.125 -3.515625 L -18.125 -11.203125 C -18.125 -12.210938 -17.976562 -13.097656 -17.6875 -13.859375 C -17.394531 -14.609375 -16.945312 -15.234375 -16.34375 -15.734375 C -16.039062 -15.960938 -15.695312 -16.164062 -15.3125 -16.34375 C -14.925781 -16.53125 -14.5 -16.675781 -14.03125 -16.78125 Z M -3.359375 -5 C -3.316406 -5 -3.285156 -5 -3.265625 -5 C -3.253906 -5.007812 -3.25 -5.015625 -3.25 -5.015625 L -3.25 -11.125 C -3.25 -11.375 -3.265625 -11.609375 -3.296875 -11.828125 C -3.328125 -12.054688 -3.375 -12.257812 -3.4375 -12.4375 C -3.5625 -12.769531 -3.757812 -13.039062 -4.03125 -13.25 C -4.320312 -13.46875 -4.703125 -13.617188 -5.171875 -13.703125 C -5.421875 -13.742188 -5.695312 -13.78125 -6 -13.8125 C -6.300781 -13.84375 -6.632812 -13.859375 -7 -13.859375 L -11.109375 -13.859375 C -11.472656 -13.859375 -11.804688 -13.84375 -12.109375 -13.8125 C -12.421875 -13.78125 -12.703125 -13.742188 -12.953125 -13.703125 C -13.421875 -13.617188 -13.796875 -13.46875 -14.078125 -13.25 C -14.335938 -13.070312 -14.535156 -12.800781 -14.671875 -12.4375 C -14.804688 -12.082031 -14.875 -11.644531 -14.875 -11.125 L -14.875 -5.03125 C -14.875 -5.007812 -14.828125 -5 -14.734375 -5 Z M -3.359375 -5 "/></g></g></g><g fill="#000000" fill-opacity="1"><g transform="translate(277.686754, 182.354381)"><g><path d="M -3.9375 -14.984375 C -3.9375 -15.085938 -3.894531 -15.21875 -3.8125 -15.375 C -3.738281 -15.539062 -3.53125 -15.625 -3.1875 -15.625 L -0.765625 -15.625 C -0.429688 -15.625 -0.222656 -15.539062 -0.140625 -15.375 C -0.0546875 -15.21875 -0.015625 -15.085938 -0.015625 -14.984375 L -0.015625 -7.171875 C -0.015625 -6.691406 -0.046875 -6.242188 -0.109375 -5.828125 C -0.171875 -5.421875 -0.265625 -5.046875 -0.390625 -4.703125 C -0.640625 -3.984375 -1.046875 -3.410156 -1.609375 -2.984375 C -2.179688 -2.546875 -2.898438 -2.234375 -3.765625 -2.046875 C -4.128906 -1.972656 -4.53125 -1.910156 -4.96875 -1.859375 C -5.40625 -1.804688 -5.882812 -1.773438 -6.40625 -1.765625 L -6.515625 -1.765625 L -9.28125 -1.796875 C -9.445312 -1.847656 -9.628906 -1.929688 -9.828125 -2.046875 C -10.398438 -2.367188 -10.710938 -2.867188 -10.765625 -3.546875 L -10.78125 -14.890625 C -10.78125 -14.984375 -10.738281 -15.109375 -10.65625 -15.265625 C -10.570312 -15.429688 -10.363281 -15.515625 -10.03125 -15.515625 L -8.296875 -15.515625 C -7.953125 -15.515625 -7.738281 -15.429688 -7.65625 -15.265625 C -7.570312 -15.109375 -7.53125 -14.984375 -7.53125 -14.890625 L -7.53125 -5.0625 C -7.53125 -5.0625 -7.445312 -5.054688 -7.28125 -5.046875 C -7.125 -5.035156 -6.941406 -5.023438 -6.734375 -5.015625 C -6.523438 -5.015625 -6.335938 -5.015625 -6.171875 -5.015625 C -6.015625 -5.015625 -5.9375 -5.015625 -5.9375 -5.015625 C -5.882812 -5.023438 -5.820312 -5.03125 -5.75 -5.03125 C -5.6875 -5.03125 -5.625 -5.039062 -5.5625 -5.0625 C -5.15625 -5.113281 -4.828125 -5.238281 -4.578125 -5.4375 C -4.359375 -5.613281 -4.195312 -5.832031 -4.09375 -6.09375 C -4.050781 -6.257812 -4.015625 -6.429688 -3.984375 -6.609375 C -3.953125 -6.796875 -3.9375 -7.003906 -3.9375 -7.234375 Z M -10.578125 -3.703125 Z M -18.171875 -15 C -18.171875 -15.09375 -18.125 -15.21875 -18.03125 -15.375 C -17.945312 -15.539062 -17.738281 -15.625 -17.40625 -15.625 L -15.65625 -15.625 C -15.320312 -15.625 -15.109375 -15.539062 -15.015625 -15.375 C -14.929688 -15.21875 -14.890625 -15.09375 -14.890625 -15 L -14.921875 -2.359375 C -14.921875 -2.265625 -14.957031 -2.140625 -15.03125 -1.984375 C -15.113281 -1.835938 -15.320312 -1.765625 -15.65625 -1.765625 L -17.375 -1.765625 C -17.726562 -1.765625 -17.945312 -1.835938 -18.03125 -1.984375 C -18.125 -2.140625 -18.171875 -2.265625 -18.171875 -2.359375 Z M -18.171875 -15 "/></g></g></g><g fill="#000000" fill-opacity="1"><g transform="translate(277.686754, 163.877679)"><g/></g></g><g fill="#000000" fill-opacity="1"><g transform="translate(277.686754, 151.471895)"><g><path d="M -3.25 -14.453125 C -3.25 -14.554688 -3.203125 -14.679688 -3.109375 -14.828125 C -3.023438 -14.984375 -2.816406 -15.0625 -2.484375 -15.0625 L -0.75 -15.0625 C -0.40625 -15.0625 -0.191406 -14.984375 -0.109375 -14.828125 C -0.0234375 -14.679688 0.015625 -14.554688 0.015625 -14.453125 L 0.015625 -7.1875 C 0.015625 -6.21875 -0.109375 -5.398438 -0.359375 -4.734375 C -0.585938 -4.046875 -0.992188 -3.472656 -1.578125 -3.015625 C -2.109375 -2.585938 -2.828125 -2.269531 -3.734375 -2.0625 C -4.628906 -1.863281 -5.679688 -1.765625 -6.890625 -1.765625 L -17.359375 -1.765625 C -17.710938 -1.765625 -17.925781 -1.84375 -18 -2 C -18.082031 -2.164062 -18.125 -2.296875 -18.125 -2.390625 L -18.125 -4.421875 C -18.125 -4.503906 -18.082031 -4.625 -18 -4.78125 C -17.925781 -4.945312 -17.710938 -5.03125 -17.359375 -5.03125 L -6.515625 -5.03125 C -6.191406 -5.03125 -5.890625 -5.035156 -5.609375 -5.046875 C -5.328125 -5.066406 -5.078125 -5.097656 -4.859375 -5.140625 C -4.460938 -5.203125 -4.140625 -5.328125 -3.890625 -5.515625 C -3.660156 -5.660156 -3.5 -5.875 -3.40625 -6.15625 C -3.300781 -6.445312 -3.25 -6.828125 -3.25 -7.296875 Z M -3.25 -14.453125 "/></g></g></g><g fill="#000000" fill-opacity="1"><g transform="translate(277.686754, 133.545092)"><g><path d="M -18.125 -16.96875 C -18.125 -17.0625 -18.082031 -17.1875 -18 -17.34375 C -17.925781 -17.5 -17.71875 -17.578125 -17.375 -17.578125 L -6.890625 -17.578125 C -6.273438 -17.578125 -5.703125 -17.554688 -5.171875 -17.515625 C -4.640625 -17.472656 -4.160156 -17.398438 -3.734375 -17.296875 C -2.828125 -17.085938 -2.109375 -16.769531 -1.578125 -16.34375 C -1.023438 -15.914062 -0.617188 -15.34375 -0.359375 -14.625 C -0.117188 -13.96875 0 -13.140625 0 -12.140625 L 0 -7.1875 C 0 -6.195312 -0.117188 -5.367188 -0.359375 -4.703125 C -0.484375 -4.367188 -0.648438 -4.054688 -0.859375 -3.765625 C -1.066406 -3.472656 -1.304688 -3.222656 -1.578125 -3.015625 C -2.140625 -2.554688 -2.859375 -2.234375 -3.734375 -2.046875 C -4.160156 -1.941406 -4.640625 -1.867188 -5.171875 -1.828125 C -5.703125 -1.785156 -6.273438 -1.765625 -6.890625 -1.765625 L -17.375 -1.765625 C -17.71875 -1.765625 -17.925781 -1.84375 -18 -2 C -18.082031 -2.164062 -18.125 -2.296875 -18.125 -2.390625 L -18.125 -4.40625 C -18.125 -4.5 -18.082031 -4.625 -18 -4.78125 C -17.925781 -4.9375 -17.71875 -5.015625 -17.375 -5.015625 L -6.53125 -5.015625 C -6.207031 -5.015625 -5.898438 -5.023438 -5.609375 -5.046875 C -5.328125 -5.066406 -5.085938 -5.09375 -4.890625 -5.125 C -4.492188 -5.21875 -4.160156 -5.34375 -3.890625 -5.5 C -3.671875 -5.675781 -3.507812 -5.894531 -3.40625 -6.15625 C -3.363281 -6.300781 -3.328125 -6.46875 -3.296875 -6.65625 C -3.265625 -6.851562 -3.25 -7.066406 -3.25 -7.296875 L -3.25 -12.0625 C -3.25 -12.289062 -3.265625 -12.5 -3.296875 -12.6875 C -3.328125 -12.882812 -3.363281 -13.054688 -3.40625 -13.203125 C -3.507812 -13.460938 -3.671875 -13.679688 -3.890625 -13.859375 C -4.003906 -13.929688 -4.144531 -14 -4.3125 -14.0625 C -4.488281 -14.132812 -4.679688 -14.1875 -4.890625 -14.21875 C -5.085938 -14.238281 -5.328125 -14.257812 -5.609375 -14.28125 C -5.898438 -14.3125 -6.207031 -14.328125 -6.53125 -14.328125 L -17.375 -14.328125 C -17.71875 -14.328125 -17.925781 -14.398438 -18 -14.546875 C -18.082031 -14.703125 -18.125 -14.832031 -18.125 -14.9375 Z M -18.125 -16.96875 "/></g></g></g><g fill="#000000" fill-opacity="1"><g transform="translate(277.686754, 113.110729)"><g><path d="M -9.390625 -12.140625 L -0.96875 -18.046875 C -0.789062 -18.171875 -0.609375 -18.210938 -0.421875 -18.171875 C -0.140625 -18.140625 0 -17.976562 0 -17.6875 L 0 -15.140625 C 0 -14.941406 -0.03125 -14.785156 -0.09375 -14.671875 C -0.132812 -14.617188 -0.179688 -14.566406 -0.234375 -14.515625 C -0.296875 -14.460938 -0.375 -14.410156 -0.46875 -14.359375 L -6.75 -9.921875 L -0.4375 -5.453125 C -0.289062 -5.367188 -0.179688 -5.265625 -0.109375 -5.140625 C -0.0351562 -5.054688 0 -4.90625 0 -4.6875 L 0 -2.265625 C 0 -1.984375 -0.140625 -1.820312 -0.421875 -1.78125 C -0.640625 -1.75 -0.820312 -1.800781 -0.96875 -1.9375 L -9.53125 -7.984375 L -17.15625 -2.53125 C -17.320312 -2.414062 -17.503906 -2.367188 -17.703125 -2.390625 C -17.984375 -2.421875 -18.125 -2.582031 -18.125 -2.875 L -18.125 -5.4375 C -18.125 -5.625 -18.085938 -5.773438 -18.015625 -5.890625 C -17.910156 -6.023438 -17.800781 -6.128906 -17.6875 -6.203125 L -12.0625 -10.09375 L -17.6875 -14.234375 C -17.800781 -14.304688 -17.910156 -14.410156 -18.015625 -14.546875 C -18.085938 -14.660156 -18.125 -14.8125 -18.125 -15 L -18.125 -17.421875 C -18.125 -17.710938 -17.984375 -17.882812 -17.703125 -17.9375 C -17.484375 -17.957031 -17.300781 -17.90625 -17.15625 -17.78125 Z M -9.390625 -12.140625 "/></g></g></g></svg>